<?xml version="1.0" encoding="UTF-8" standalone="no"?><svg xmlns="http://www.w3.org/2000/svg" xmlns:xlink="http://www.w3.org/1999/xlink" contentScriptType="application/ecmascript" contentStyleType="text/css" height="373px" preserveAspectRatio="none" style="width:454px;height:373px;background:#FFFFFF;" version="1.1" viewBox="0 0 454 373" width="454px" zoomAndPan="magnify"><defs><filter height="300%" id="f7s5nx6m7t19g" width="300%" x="-1" y="-1"><feGaussianBlur result="blurOut" stdDeviation="2.0"/><feColorMatrix in="blurOut" result="blurOut2" type="matrix" values="0 0 0 0 0 0 0 0 0 0 0 0 0 0 0 0 0 0 .4 0"/><feOffset dx="4.0" dy="4.0" in="blurOut2" result="blurOut3"/><feBlend in="SourceGraphic" in2="blurOut3" mode="normal"/></filter></defs><g><line style="stroke:#A80036;stroke-width:1.0;stroke-dasharray:5.0,5.0;" x1="48" x2="48" y1="67.4883" y2="305.3516"/><line style="stroke:#A80036;stroke-width:1.0;stroke-dasharray:5.0,5.0;" x1="198.5" x2="198.5" y1="67.4883" y2="305.3516"/><line style="stroke:#A80036;stroke-width:1.0;stroke-dasharray:5.0,5.0;" x1="421.5" x2="421.5" y1="67.4883" y2="305.3516"/><rect fill="#FEFECE" filter="url(#f7s5nx6m7t19g)" height="30.4883" style="stroke:#A80036;stroke-width:1.5;" width="83" x="5" y="32"/><text fill="#000000" font-family="sans-serif" font-size="14" lengthAdjust="spacing" textLength="69" x="12" y="52.5352">Auth_Web</text><rect fill="#FEFECE" filter="url(#f7s5nx6m7t19g)" height="30.4883" style="stroke:#A80036;stroke-width:1.5;" width="83" x="5" y="304.3516"/><text fill="#000000" font-family="sans-serif" font-size="14" lengthAdjust="spacing" textLength="69" x="12" y="324.8867">Auth_Web</text><rect fill="#FEFECE" filter="url(#f7s5nx6m7t19g)" height="30.4883" style="stroke:#A80036;stroke-width:1.5;" width="76" x="158.5" y="32"/><text fill="#000000" font-family="sans-serif" font-size="14" lengthAdjust="spacing" textLength="62" x="165.5" y="52.5352">Auth_API</text><rect fill="#FEFECE" filter="url(#f7s5nx6m7t19g)" height="30.4883" style="stroke:#A80036;stroke-width:1.5;" width="76" x="158.5" y="304.3516"/><text fill="#000000" font-family="sans-serif" font-size="14" lengthAdjust="spacing" textLength="62" x="165.5" y="324.8867">Auth_API</text><text fill="#000000" font-family="sans-serif" font-size="14" lengthAdjust="spacing" textLength="58" x="389.5" y="64.5352">Auth_DB</text><path d="M403.5,15 C403.5,5 421.5,5 421.5,5 C421.5,5 439.5,5 439.5,15 L439.5,41 C439.5,51 421.5,51 421.5,51 C421.5,51 403.5,51 403.5,41 L403.5,15 " fill="#FEFECE" filter="url(#f7s5nx6m7t19g)" style="stroke:#000000;stroke-width:1.5;"/><path d="M403.5,15 C403.5,25 421.5,25 421.5,25 C421.5,25 439.5,25 439.5,15 " fill="none" style="stroke:#000000;stroke-width:1.5;"/><text fill="#000000" font-family="sans-serif" font-size="14" lengthAdjust="spacing" textLength="58" x="389.5" y="317.8867">Auth_DB</text><path d="M403.5,330.8398 C403.5,320.8398 421.5,320.8398 421.5,320.8398 C421.5,320.8398 439.5,320.8398 439.5,330.8398 L439.5,356.8398 C439.5,366.8398 421.5,366.8398 421.5,366.8398 C421.5,366.8398 403.5,366.8398 403.5,356.8398 L403.5,330.8398 " fill="#FEFECE" filter="url(#f7s5nx6m7t19g)" style="stroke:#000000;stroke-width:1.5;"/><path d="M403.5,330.8398 C403.5,340.8398 421.5,340.8398 421.5,340.8398 C421.5,340.8398 439.5,340.8398 439.5,330.8398 " fill="none" style="stroke:#000000;stroke-width:1.5;"/><polygon fill="#A80036" points="186.5,94.7988,196.5,98.7988,186.5,102.7988,190.5,98.7988" style="stroke:#A80036;stroke-width:1.0;"/><line style="stroke:#A80036;stroke-width:1.0;" x1="48.5" x2="192.5" y1="98.7988" y2="98.7988"/><text fill="#000000" font-family="sans-serif" font-size="13" lengthAdjust="spacing" textLength="110" x="55.5" y="94.0566">Affiliate business</text><polygon fill="#A80036" points="409.5,124.1094,419.5,128.1094,409.5,132.1094,413.5,128.1094" style="stroke:#A80036;stroke-width:1.0;"/><line style="stroke:#A80036;stroke-width:1.0;" x1="198.5" x2="415.5" y1="128.1094" y2="128.1094"/><text fill="#000000" font-family="sans-serif" font-size="13" lengthAdjust="spacing" textLength="148" x="205.5" y="123.3672">Create affiliations entry</text><polygon fill="#A80036" points="59.5,138.1094,49.5,142.1094,59.5,146.1094,55.5,142.1094" style="stroke:#A80036;stroke-width:1.0;"/><line style="stroke:#A80036;stroke-width:1.0;" x1="53.5" x2="197.5" y1="142.1094" y2="142.1094"/><polygon fill="#A80036" points="186.5,167.4199,196.5,171.4199,186.5,175.4199,190.5,171.4199" style="stroke:#A80036;stroke-width:1.0;"/><line style="stroke:#A80036;stroke-width:1.0;" x1="48.5" x2="192.5" y1="171.4199" y2="171.4199"/><text fill="#000000" font-family="sans-serif" font-size="13" lengthAdjust="spacing" textLength="120" x="55.5" y="166.6777">Delegate affiliation</text><polygon fill="#A80036" points="409.5,196.7305,419.5,200.7305,409.5,204.7305,413.5,200.7305" style="stroke:#A80036;stroke-width:1.0;"/><line style="stroke:#A80036;stroke-width:1.0;" x1="198.5" x2="415.5" y1="200.7305" y2="200.7305"/><text fill="#000000" font-family="sans-serif" font-size="13" lengthAdjust="spacing" textLength="153" x="205.5" y="195.9883">Create delegations entry</text><polygon fill="#A80036" points="59.5,210.7305,49.5,214.7305,59.5,218.7305,55.5,214.7305" style="stroke:#A80036;stroke-width:1.0;"/><line style="stroke:#A80036;stroke-width:1.0;" x1="53.5" x2="197.5" y1="214.7305" y2="214.7305"/><polygon fill="#A80036" points="186.5,240.041,196.5,244.041,186.5,248.041,190.5,244.041" style="stroke:#A80036;stroke-width:1.0;"/><line style="stroke:#A80036;stroke-width:1.0;" x1="48.5" x2="192.5" y1="244.041" y2="244.041"/><text fill="#000000" font-family="sans-serif" font-size="13" lengthAdjust="spacing" textLength="126" x="55.5" y="239.2988">GET /authorizations</text><polygon fill="#A80036" points="409.5,269.3516,419.5,273.3516,409.5,277.3516,413.5,273.3516" style="stroke:#A80036;stroke-width:1.0;"/><line style="stroke:#A80036;stroke-width:1.0;" x1="198.5" x2="415.5" y1="273.3516" y2="273.3516"/><text fill="#000000" font-family="sans-serif" font-size="13" lengthAdjust="spacing" textLength="199" x="205.5" y="268.6094">Check delegated authorizations</text><polygon fill="#A80036" points="59.5,283.3516,49.5,287.3516,59.5,291.3516,55.5,287.3516" style="stroke:#A80036;stroke-width:1.0;"/><line style="stroke:#A80036;stroke-width:1.0;" x1="53.5" x2="197.5" y1="287.3516" y2="287.3516"/><!--MD5=[2ecca0a9578f59c48a023af8f9806624]
@startuml rfc-delegation-and-permissions/delegation_seq
participant Auth_Web
participant Auth_API
database    Auth_DB

Auth_Web -> Auth_API: Affiliate business
Auth_API -> Auth_DB: Create affiliations entry
Auth_API -> Auth_Web: 
Auth_Web -> Auth_API: Delegate affiliation
Auth_API -> Auth_DB: Create delegations entry
Auth_API -> Auth_Web: 
Auth_Web -> Auth_API : GET /authorizations 
Auth_API -> Auth_DB : Check delegated authorizations
Auth_API -> Auth_Web: 
@enduml

PlantUML version 1.2021.10(Mon Aug 30 06:43:48 PDT 2021)
(GPL source distribution)
Java Runtime: OpenJDK Runtime Environment
JVM: OpenJDK 64-Bit Server VM
Default Encoding: UTF-8
Language: en
Country: CA
--></g></svg>