<?xml version="1.0" encoding="UTF-8" standalone="no"?><svg xmlns="http://www.w3.org/2000/svg" xmlns:xlink="http://www.w3.org/1999/xlink" contentScriptType="application/ecmascript" contentStyleType="text/css" height="280px" preserveAspectRatio="none" style="width:643px;height:280px;background:#FFFFFF;" version="1.1" viewBox="0 0 643 280" width="643px" zoomAndPan="magnify"><defs><filter height="300%" id="f1lue3f5ylr2dk" width="300%" x="-1" y="-1"><feGaussianBlur result="blurOut" stdDeviation="2.0"/><feColorMatrix in="blurOut" result="blurOut2" type="matrix" values="0 0 0 0 0 0 0 0 0 0 0 0 0 0 0 0 0 0 .4 0"/><feOffset dx="4.0" dy="4.0" in="blurOut2" result="blurOut3"/><feBlend in="SourceGraphic" in2="blurOut3" mode="normal"/></filter></defs><g><line style="stroke:#A80036;stroke-width:1.0;stroke-dasharray:5.0,5.0;" x1="43" x2="43" y1="88.4883" y2="196.4199"/><line style="stroke:#A80036;stroke-width:1.0;stroke-dasharray:5.0,5.0;" x1="230" x2="230" y1="88.4883" y2="196.4199"/><line style="stroke:#A80036;stroke-width:1.0;stroke-dasharray:5.0,5.0;" x1="417" x2="417" y1="88.4883" y2="196.4199"/><line style="stroke:#A80036;stroke-width:1.0;stroke-dasharray:5.0,5.0;" x1="604" x2="604" y1="88.4883" y2="196.4199"/><text fill="#000000" font-family="sans-serif" font-size="14" lengthAdjust="spacing" textLength="70" x="5" y="85.5352">account_1</text><ellipse cx="43" cy="15" fill="#FEFECE" filter="url(#f1lue3f5ylr2dk)" rx="8" ry="8" style="stroke:#A80036;stroke-width:2.0;"/><path d="M43,23 L43,50 M30,31 L56,31 M43,50 L30,65 M43,50 L56,65 " fill="none" filter="url(#f1lue3f5ylr2dk)" style="stroke:#A80036;stroke-width:2.0;"/><text fill="#000000" font-family="sans-serif" font-size="14" lengthAdjust="spacing" textLength="70" x="5" y="208.9551">account_1</text><ellipse cx="43" cy="221.9082" fill="#FEFECE" filter="url(#f1lue3f5ylr2dk)" rx="8" ry="8" style="stroke:#A80036;stroke-width:2.0;"/><path d="M43,229.9082 L43,256.9082 M30,237.9082 L56,237.9082 M43,256.9082 L30,271.9082 M43,256.9082 L56,271.9082 " fill="none" filter="url(#f1lue3f5ylr2dk)" style="stroke:#A80036;stroke-width:2.0;"/><text fill="#000000" font-family="sans-serif" font-size="14" lengthAdjust="spacing" textLength="70" x="192" y="85.5352">account_2</text><ellipse cx="230" cy="15" fill="#FEFECE" filter="url(#f1lue3f5ylr2dk)" rx="8" ry="8" style="stroke:#A80036;stroke-width:2.0;"/><path d="M230,23 L230,50 M217,31 L243,31 M230,50 L217,65 M230,50 L243,65 " fill="none" filter="url(#f1lue3f5ylr2dk)" style="stroke:#A80036;stroke-width:2.0;"/><text fill="#000000" font-family="sans-serif" font-size="14" lengthAdjust="spacing" textLength="70" x="192" y="208.9551">account_2</text><ellipse cx="230" cy="221.9082" fill="#FEFECE" filter="url(#f1lue3f5ylr2dk)" rx="8" ry="8" style="stroke:#A80036;stroke-width:2.0;"/><path d="M230,229.9082 L230,256.9082 M217,237.9082 L243,237.9082 M230,256.9082 L217,271.9082 M230,256.9082 L243,271.9082 " fill="none" filter="url(#f1lue3f5ylr2dk)" style="stroke:#A80036;stroke-width:2.0;"/><text fill="#000000" font-family="sans-serif" font-size="14" lengthAdjust="spacing" textLength="70" x="379" y="85.5352">account_3</text><ellipse cx="417" cy="15" fill="#FEFECE" filter="url(#f1lue3f5ylr2dk)" rx="8" ry="8" style="stroke:#A80036;stroke-width:2.0;"/><path d="M417,23 L417,50 M404,31 L430,31 M417,50 L404,65 M417,50 L430,65 " fill="none" filter="url(#f1lue3f5ylr2dk)" style="stroke:#A80036;stroke-width:2.0;"/><text fill="#000000" font-family="sans-serif" font-size="14" lengthAdjust="spacing" textLength="70" x="379" y="208.9551">account_3</text><ellipse cx="417" cy="221.9082" fill="#FEFECE" filter="url(#f1lue3f5ylr2dk)" rx="8" ry="8" style="stroke:#A80036;stroke-width:2.0;"/><path d="M417,229.9082 L417,256.9082 M404,237.9082 L430,237.9082 M417,256.9082 L404,271.9082 M417,256.9082 L430,271.9082 " fill="none" filter="url(#f1lue3f5ylr2dk)" style="stroke:#A80036;stroke-width:2.0;"/><text fill="#000000" font-family="sans-serif" font-size="14" lengthAdjust="spacing" textLength="70" x="566" y="85.5352">account_4</text><ellipse cx="604" cy="15" fill="#FEFECE" filter="url(#f1lue3f5ylr2dk)" rx="8" ry="8" style="stroke:#A80036;stroke-width:2.0;"/><path d="M604,23 L604,50 M591,31 L617,31 M604,50 L591,65 M604,50 L617,65 " fill="none" filter="url(#f1lue3f5ylr2dk)" style="stroke:#A80036;stroke-width:2.0;"/><text fill="#000000" font-family="sans-serif" font-size="14" lengthAdjust="spacing" textLength="70" x="566" y="208.9551">account_4</text><ellipse cx="604" cy="221.9082" fill="#FEFECE" filter="url(#f1lue3f5ylr2dk)" rx="8" ry="8" style="stroke:#A80036;stroke-width:2.0;"/><path d="M604,229.9082 L604,256.9082 M591,237.9082 L617,237.9082 M604,256.9082 L591,271.9082 M604,256.9082 L617,271.9082 " fill="none" filter="url(#f1lue3f5ylr2dk)" style="stroke:#A80036;stroke-width:2.0;"/><polygon fill="#A80036" points="218,115.7988,228,119.7988,218,123.7988,222,119.7988" style="stroke:#A80036;stroke-width:1.0;"/><line style="stroke:#A80036;stroke-width:1.0;" x1="43" x2="224" y1="119.7988" y2="119.7988"/><text fill="#000000" font-family="sans-serif" font-size="13" lengthAdjust="spacing" textLength="163" x="50" y="115.0566">Delegate Auth for Entity 1</text><polygon fill="#A80036" points="405,145.1094,415,149.1094,405,153.1094,409,149.1094" style="stroke:#A80036;stroke-width:1.0;"/><line style="stroke:#A80036;stroke-width:1.0;" x1="230" x2="411" y1="149.1094" y2="149.1094"/><text fill="#000000" font-family="sans-serif" font-size="13" lengthAdjust="spacing" textLength="163" x="237" y="144.3672">Delegate Auth for Entity 1</text><polygon fill="#A80036" points="592,174.4199,602,178.4199,592,182.4199,596,178.4199" style="stroke:#A80036;stroke-width:1.0;"/><line style="stroke:#A80036;stroke-width:1.0;" x1="417" x2="598" y1="178.4199" y2="178.4199"/><text fill="#000000" font-family="sans-serif" font-size="13" lengthAdjust="spacing" textLength="163" x="424" y="173.6777">Delegate Auth for Entity 1</text><!--MD5=[517d02625cfac2b40dc384d921e56153]
@startuml rfc-delegation-and-permissions/n_delegation
actor    account_1
actor    account_2
actor    account_3
actor    account_4

account_1 -> account_2: Delegate Auth for Entity 1
account_2 -> account_3: Delegate Auth for Entity 1
account_3 -> account_4: Delegate Auth for Entity 1

@enduml

PlantUML version 1.2021.10(Mon Aug 30 06:43:48 PDT 2021)
(GPL source distribution)
Java Runtime: OpenJDK Runtime Environment
JVM: OpenJDK 64-Bit Server VM
Default Encoding: UTF-8
Language: en
Country: CA
--></g></svg>